<svg width="226" height="18" viewBox="0 0 226 18" fill="none" xmlns="http://www.w3.org/2000/svg">
<line x1="12.8622" y1="11.25" x2="12.8622" y2="13.5" stroke="#696969" stroke-width="0.75"/>
<line x1="18.6058" y1="11.25" x2="18.6058" y2="13.5" stroke="#696969" stroke-width="0.75"/>
<line x1="24.3494" y1="11.25" x2="24.3494" y2="13.5" stroke="#696969" stroke-width="0.75"/>
<line x1="30.093" y1="11.25" x2="30.093" y2="13.5" stroke="#696969" stroke-width="0.75"/>
<line x1="35.8365" y1="11.25" x2="35.8365" y2="18" stroke="#696969" stroke-width="0.75"/>
<line x1="41.5801" y1="11.25" x2="41.5801" y2="13.5" stroke="#696969" stroke-width="0.75"/>
<line x1="47.3237" y1="11.25" x2="47.3237" y2="13.5" stroke="#696969" stroke-width="0.75"/>
<line x1="53.0673" y1="11.25" x2="53.0673" y2="13.5" stroke="#696969" stroke-width="0.75"/>
<line x1="58.8109" y1="11.25" x2="58.8109" y2="13.5" stroke="#696969" stroke-width="0.75"/>
<line x1="64.5545" y1="11.25" x2="64.5545" y2="18" stroke="#696969" stroke-width="0.75"/>
<line x1="70.2981" y1="11.25" x2="70.2981" y2="13.5" stroke="#696969" stroke-width="0.75"/>
<line x1="76.0417" y1="11.25" x2="76.0417" y2="13.5" stroke="#696969" stroke-width="0.75"/>
<line x1="81.7852" y1="11.25" x2="81.7852" y2="13.5" stroke="#696969" stroke-width="0.75"/>
<line x1="87.5288" y1="11.25" x2="87.5288" y2="13.5" stroke="#696969" stroke-width="0.75"/>
<line x1="93.2724" y1="11.25" x2="93.2724" y2="18" stroke="#696969" stroke-width="0.75"/>
<line x1="99.016" y1="11.25" x2="99.016" y2="13.5" stroke="#696969" stroke-width="0.75"/>
<line x1="104.76" y1="11.25" x2="104.76" y2="13.5" stroke="#696969" stroke-width="0.75"/>
<line x1="110.503" y1="11.25" x2="110.503" y2="13.5" stroke="#696969" stroke-width="0.75"/>
<line x1="116.247" y1="11.25" x2="116.247" y2="18" stroke="#696969" stroke-width="0.75"/>
<line x1="121.99" y1="11.25" x2="121.99" y2="13.5" stroke="#696969" stroke-width="0.75"/>
<line x1="127.734" y1="11.25" x2="127.734" y2="13.5" stroke="#696969" stroke-width="0.75"/>
<line x1="133.478" y1="11.25" x2="133.478" y2="18" stroke="#696969" stroke-width="0.75"/>
<line x1="139.221" y1="11.25" x2="139.221" y2="13.5" stroke="#696969" stroke-width="0.75"/>
<line x1="144.965" y1="11.25" x2="144.965" y2="13.5" stroke="#696969" stroke-width="0.75"/>
<line x1="150.708" y1="11.25" x2="150.708" y2="13.5" stroke="#696969" stroke-width="0.75"/>
<line x1="156.452" y1="11.25" x2="156.452" y2="13.5" stroke="#696969" stroke-width="0.75"/>
<line x1="162.195" y1="11.25" x2="162.195" y2="18" stroke="#696969" stroke-width="0.75"/>
<line x1="167.939" y1="11.25" x2="167.939" y2="13.5" stroke="#696969" stroke-width="0.75"/>
<line x1="173.683" y1="11.25" x2="173.683" y2="13.5" stroke="#696969" stroke-width="0.75"/>
<line x1="179.426" y1="11.25" x2="179.426" y2="13.5" stroke="#696969" stroke-width="0.75"/>
<line x1="185.17" y1="11.25" x2="185.17" y2="13.5" stroke="#696969" stroke-width="0.75"/>
<line x1="190.913" y1="11.25" x2="190.913" y2="18" stroke="#696969" stroke-width="0.75"/>
<line x1="196.657" y1="11.25" x2="196.657" y2="13.5" stroke="#696969" stroke-width="0.75"/>
<line x1="202.401" y1="11.25" x2="202.401" y2="13.5" stroke="#696969" stroke-width="0.75"/>
<line x1="208.144" y1="11.25" x2="208.144" y2="13.5" stroke="#696969" stroke-width="0.75"/>
<line x1="213.888" y1="11.25" x2="213.888" y2="13.5" stroke="#696969" stroke-width="0.75"/>
<line y1="-0.375" x2="4.5" y2="-0.375" transform="matrix(-9.77435e-08 -1 -1 1.9548e-08 12.4872 15.75)" stroke="#696969" stroke-width="0.75"/>
<line y1="-0.375" x2="4.5" y2="-0.375" transform="matrix(-9.76346e-08 -1 -1 1.95698e-08 18.2308 15.75)" stroke="#696969" stroke-width="0.75"/>
<line y1="-0.375" x2="4.5" y2="-0.375" transform="matrix(-9.76346e-08 -1 -1 1.95698e-08 23.9744 15.75)" stroke="#696969" stroke-width="0.75"/>
<line y1="-0.375" x2="4.5" y2="-0.375" transform="matrix(-9.76346e-08 -1 -1 1.95698e-08 29.718 15.75)" stroke="#696969" stroke-width="0.75"/>
<line y1="-0.375" x2="6.75" y2="-0.375" transform="matrix(5.57912e-08 -1 -1 -3.42471e-08 35.4615 18)" stroke="#696969" stroke-width="0.75"/>
<line y1="-0.375" x2="4.5" y2="-0.375" transform="matrix(-9.76346e-08 -1 -1 1.95698e-08 41.2051 15.75)" stroke="#696969" stroke-width="0.75"/>
<line y1="-0.375" x2="4.5" y2="-0.375" transform="matrix(-9.76346e-08 -1 -1 1.95698e-08 46.9487 15.75)" stroke="#696969" stroke-width="0.75"/>
<line y1="-0.375" x2="4.5" y2="-0.375" transform="matrix(-9.76346e-08 -1 -1 1.95698e-08 52.6923 15.75)" stroke="#696969" stroke-width="0.75"/>
<line y1="-0.375" x2="4.5" y2="-0.375" transform="matrix(-9.76346e-08 -1 -1 1.95698e-08 58.4359 15.75)" stroke="#696969" stroke-width="0.75"/>
<line y1="-0.375" x2="6.75" y2="-0.375" transform="matrix(5.57912e-08 -1 -1 -3.42471e-08 64.1795 18)" stroke="#696969" stroke-width="0.75"/>
<line y1="-0.375" x2="4.5" y2="-0.375" transform="matrix(-9.76346e-08 -1 -1 1.95698e-08 69.9231 15.75)" stroke="#696969" stroke-width="0.75"/>
<line y1="-0.375" x2="4.5" y2="-0.375" transform="matrix(-9.76346e-08 -1 -1 1.95698e-08 75.6667 15.75)" stroke="#696969" stroke-width="0.75"/>
<line y1="-0.375" x2="4.5" y2="-0.375" transform="matrix(-9.76346e-08 -1 -1 1.95698e-08 81.4102 15.75)" stroke="#696969" stroke-width="0.75"/>
<line y1="-0.375" x2="4.5" y2="-0.375" transform="matrix(-9.76346e-08 -1 -1 1.95698e-08 87.1538 15.75)" stroke="#696969" stroke-width="0.75"/>
<line y1="-0.375" x2="6.75" y2="-0.375" transform="matrix(5.57912e-08 -1 -1 -3.42471e-08 92.8974 18)" stroke="#696969" stroke-width="0.75"/>
<line y1="-0.375" x2="4.5" y2="-0.375" transform="matrix(-9.76346e-08 -1 -1 1.95698e-08 98.641 15.75)" stroke="#696969" stroke-width="0.75"/>
<line y1="-0.375" x2="4.5" y2="-0.375" transform="matrix(-9.76346e-08 -1 -1 1.95698e-08 104.385 15.75)" stroke="#696969" stroke-width="0.75"/>
<line y1="-0.375" x2="4.5" y2="-0.375" transform="matrix(-9.76346e-08 -1 -1 1.95698e-08 110.128 15.75)" stroke="#696969" stroke-width="0.75"/>
<line y1="-0.375" x2="6.75" y2="-0.375" transform="matrix(5.57912e-08 -1 -1 -3.42471e-08 115.872 18)" stroke="#696969" stroke-width="0.75"/>
<line y1="-0.375" x2="4.5" y2="-0.375" transform="matrix(-9.76346e-08 -1 -1 1.95698e-08 121.615 15.75)" stroke="#696969" stroke-width="0.75"/>
<line y1="-0.375" x2="4.5" y2="-0.375" transform="matrix(-9.76346e-08 -1 -1 1.95698e-08 127.359 15.75)" stroke="#696969" stroke-width="0.75"/>
<line y1="-0.375" x2="6.75" y2="-0.375" transform="matrix(5.57912e-08 -1 -1 -3.42471e-08 133.103 18)" stroke="#696969" stroke-width="0.75"/>
<line y1="-0.375" x2="4.5" y2="-0.375" transform="matrix(-9.76346e-08 -1 -1 1.95698e-08 138.846 15.75)" stroke="#696969" stroke-width="0.75"/>
<line y1="-0.375" x2="4.5" y2="-0.375" transform="matrix(-9.76346e-08 -1 -1 1.95698e-08 144.59 15.75)" stroke="#696969" stroke-width="0.75"/>
<line y1="-0.375" x2="4.5" y2="-0.375" transform="matrix(-9.76346e-08 -1 -1 1.95698e-08 150.333 15.75)" stroke="#696969" stroke-width="0.75"/>
<line y1="-0.375" x2="4.5" y2="-0.375" transform="matrix(-9.76346e-08 -1 -1 1.95698e-08 156.077 15.75)" stroke="#696969" stroke-width="0.75"/>
<line y1="-0.375" x2="6.75" y2="-0.375" transform="matrix(5.57912e-08 -1 -1 -3.42471e-08 161.82 18)" stroke="#696969" stroke-width="0.75"/>
<line y1="-0.375" x2="4.5" y2="-0.375" transform="matrix(-9.76346e-08 -1 -1 1.95698e-08 167.564 15.75)" stroke="#696969" stroke-width="0.75"/>
<line y1="-0.375" x2="4.5" y2="-0.375" transform="matrix(-9.76346e-08 -1 -1 1.95698e-08 173.308 15.75)" stroke="#696969" stroke-width="0.75"/>
<line y1="-0.375" x2="4.5" y2="-0.375" transform="matrix(-9.76346e-08 -1 -1 1.95698e-08 179.051 15.75)" stroke="#696969" stroke-width="0.75"/>
<line y1="-0.375" x2="4.5" y2="-0.375" transform="matrix(-9.76346e-08 -1 -1 1.95698e-08 184.795 15.75)" stroke="#696969" stroke-width="0.75"/>
<line y1="-0.375" x2="6.75" y2="-0.375" transform="matrix(5.57912e-08 -1 -1 -3.42471e-08 190.538 18)" stroke="#696969" stroke-width="0.75"/>
<line y1="-0.375" x2="4.5" y2="-0.375" transform="matrix(-9.76346e-08 -1 -1 1.95698e-08 196.282 15.75)" stroke="#696969" stroke-width="0.75"/>
<line y1="-0.375" x2="4.5" y2="-0.375" transform="matrix(-9.76346e-08 -1 -1 1.95698e-08 202.026 15.75)" stroke="#696969" stroke-width="0.75"/>
<line y1="-0.375" x2="4.5" y2="-0.375" transform="matrix(-9.76346e-08 -1 -1 1.95698e-08 207.769 15.75)" stroke="#696969" stroke-width="0.75"/>
<line y1="-0.375" x2="4.5" y2="-0.375" transform="matrix(-9.76346e-08 -1 -1 1.95698e-08 213.513 15.75)" stroke="#696969" stroke-width="0.75"/>
<line x1="35.8365" y1="-8.20503e-09" x2="35.8365" y2="6.75" stroke="#696969" stroke-width="0.75"/>
<line x1="64.5545" y1="-8.20503e-09" x2="64.5545" y2="6.75" stroke="#696969" stroke-width="0.75"/>
<line x1="93.2724" y1="-8.20503e-09" x2="93.2724" y2="6.75" stroke="#696969" stroke-width="0.75"/>
<line x1="116.247" y1="-8.20503e-09" x2="116.247" y2="6.75" stroke="#696969" stroke-width="0.75"/>
<line x1="133.478" y1="-8.20503e-09" x2="133.478" y2="6.75" stroke="#696969" stroke-width="0.75"/>
<line x1="162.195" y1="-8.20503e-09" x2="162.195" y2="6.75" stroke="#696969" stroke-width="0.75"/>
<line x1="190.913" y1="-8.20503e-09" x2="190.913" y2="6.75" stroke="#696969" stroke-width="0.75"/>
<line y1="-0.375" x2="4.5" y2="-0.375" transform="matrix(-9.77435e-08 -1 -1 1.9548e-08 12.4872 6.75)" stroke="#696969" stroke-width="0.75"/>
<line y1="-0.375" x2="4.5" y2="-0.375" transform="matrix(-9.76346e-08 -1 -1 1.95698e-08 18.2308 6.75)" stroke="#696969" stroke-width="0.75"/>
<line y1="-0.375" x2="4.5" y2="-0.375" transform="matrix(-9.76346e-08 -1 -1 1.95698e-08 23.9744 6.75)" stroke="#696969" stroke-width="0.75"/>
<line y1="-0.375" x2="4.5" y2="-0.375" transform="matrix(-9.76346e-08 -1 -1 1.95698e-08 29.718 6.75)" stroke="#696969" stroke-width="0.75"/>
<line y1="-0.375" x2="6.75" y2="-0.375" transform="matrix(5.57912e-08 -1 -1 -3.42471e-08 35.4615 6.75)" stroke="#696969" stroke-width="0.75"/>
<line y1="-0.375" x2="4.5" y2="-0.375" transform="matrix(-9.76346e-08 -1 -1 1.95698e-08 41.2051 6.75)" stroke="#696969" stroke-width="0.75"/>
<line y1="-0.375" x2="4.5" y2="-0.375" transform="matrix(-9.76346e-08 -1 -1 1.95698e-08 46.9487 6.75)" stroke="#696969" stroke-width="0.75"/>
<line y1="-0.375" x2="4.5" y2="-0.375" transform="matrix(-9.76346e-08 -1 -1 1.95698e-08 52.6923 6.75)" stroke="#696969" stroke-width="0.75"/>
<line y1="-0.375" x2="4.5" y2="-0.375" transform="matrix(-9.76346e-08 -1 -1 1.95698e-08 58.4359 6.75)" stroke="#696969" stroke-width="0.75"/>
<line y1="-0.375" x2="6.75" y2="-0.375" transform="matrix(5.57912e-08 -1 -1 -3.42471e-08 64.1795 6.75)" stroke="#696969" stroke-width="0.75"/>
<line y1="-0.375" x2="4.5" y2="-0.375" transform="matrix(-9.76346e-08 -1 -1 1.95698e-08 69.9231 6.75)" stroke="#696969" stroke-width="0.75"/>
<line y1="-0.375" x2="4.5" y2="-0.375" transform="matrix(-9.76346e-08 -1 -1 1.95698e-08 75.6667 6.75)" stroke="#696969" stroke-width="0.75"/>
<line y1="-0.375" x2="4.5" y2="-0.375" transform="matrix(-9.76346e-08 -1 -1 1.95698e-08 81.4102 6.75)" stroke="#696969" stroke-width="0.75"/>
<line y1="-0.375" x2="4.5" y2="-0.375" transform="matrix(-9.76346e-08 -1 -1 1.95698e-08 87.1538 6.75)" stroke="#696969" stroke-width="0.75"/>
<line y1="-0.375" x2="6.75" y2="-0.375" transform="matrix(5.57912e-08 -1 -1 -3.42471e-08 92.8974 6.75)" stroke="#696969" stroke-width="0.75"/>
<line y1="-0.375" x2="4.5" y2="-0.375" transform="matrix(-9.76346e-08 -1 -1 1.95698e-08 98.641 6.75)" stroke="#696969" stroke-width="0.75"/>
<line y1="-0.375" x2="4.5" y2="-0.375" transform="matrix(-9.76346e-08 -1 -1 1.95698e-08 104.385 6.75)" stroke="#696969" stroke-width="0.75"/>
<line y1="-0.375" x2="4.5" y2="-0.375" transform="matrix(-9.76346e-08 -1 -1 1.95698e-08 110.128 6.75)" stroke="#696969" stroke-width="0.75"/>
<line y1="-0.375" x2="6.75" y2="-0.375" transform="matrix(5.57912e-08 -1 -1 -3.42471e-08 115.872 6.75)" stroke="#696969" stroke-width="0.75"/>
<line y1="-0.375" x2="4.5" y2="-0.375" transform="matrix(-9.76346e-08 -1 -1 1.95698e-08 121.615 6.75)" stroke="#696969" stroke-width="0.75"/>
<line y1="-0.375" x2="4.5" y2="-0.375" transform="matrix(-9.76346e-08 -1 -1 1.95698e-08 127.359 6.75)" stroke="#696969" stroke-width="0.75"/>
<line y1="-0.375" x2="6.75" y2="-0.375" transform="matrix(5.57912e-08 -1 -1 -3.42471e-08 133.103 6.75)" stroke="#696969" stroke-width="0.75"/>
<line y1="-0.375" x2="4.5" y2="-0.375" transform="matrix(-9.76346e-08 -1 -1 1.95698e-08 138.846 6.75)" stroke="#696969" stroke-width="0.75"/>
<line y1="-0.375" x2="4.5" y2="-0.375" transform="matrix(-9.76346e-08 -1 -1 1.95698e-08 144.59 6.75)" stroke="#696969" stroke-width="0.75"/>
<line y1="-0.375" x2="4.5" y2="-0.375" transform="matrix(-9.76346e-08 -1 -1 1.95698e-08 150.333 6.75)" stroke="#696969" stroke-width="0.75"/>
<line y1="-0.375" x2="4.5" y2="-0.375" transform="matrix(-9.76346e-08 -1 -1 1.95698e-08 156.077 6.75)" stroke="#696969" stroke-width="0.75"/>
<line y1="-0.375" x2="6.75" y2="-0.375" transform="matrix(5.57912e-08 -1 -1 -3.42471e-08 161.82 6.75)" stroke="#696969" stroke-width="0.75"/>
<line y1="-0.375" x2="4.5" y2="-0.375" transform="matrix(-9.76346e-08 -1 -1 1.95698e-08 167.564 6.75)" stroke="#696969" stroke-width="0.75"/>
<line y1="-0.375" x2="4.5" y2="-0.375" transform="matrix(-9.76346e-08 -1 -1 1.95698e-08 173.308 6.75)" stroke="#696969" stroke-width="0.75"/>
<line y1="-0.375" x2="4.5" y2="-0.375" transform="matrix(-9.76346e-08 -1 -1 1.95698e-08 179.051 6.75)" stroke="#696969" stroke-width="0.75"/>
<line y1="-0.375" x2="4.5" y2="-0.375" transform="matrix(-9.76346e-08 -1 -1 1.95698e-08 184.795 6.75)" stroke="#696969" stroke-width="0.75"/>
<line y1="-0.375" x2="6.75" y2="-0.375" transform="matrix(5.57912e-08 -1 -1 -3.42471e-08 190.538 6.75)" stroke="#696969" stroke-width="0.75"/>
<line y1="-0.375" x2="4.5" y2="-0.375" transform="matrix(-9.76346e-08 -1 -1 1.95698e-08 196.282 6.75)" stroke="#696969" stroke-width="0.75"/>
<line y1="-0.375" x2="4.5" y2="-0.375" transform="matrix(-9.76346e-08 -1 -1 1.95698e-08 202.026 6.75)" stroke="#696969" stroke-width="0.75"/>
<line y1="-0.375" x2="4.5" y2="-0.375" transform="matrix(-9.76346e-08 -1 -1 1.95698e-08 207.769 6.75)" stroke="#696969" stroke-width="0.75"/>
<line y1="-0.375" x2="4.5" y2="-0.375" transform="matrix(-9.76346e-08 -1 -1 1.95698e-08 213.513 6.75)" stroke="#696969" stroke-width="0.75"/>
<path d="M1 9H225" stroke="#696969" stroke-width="0.75" stroke-linecap="round"/>
</svg>
